<?xml version="1.0" encoding="UTF-8"?>
<svg width="30px" height="30px" viewBox="0 0 30 30" version="1.1" xmlns="http://www.w3.org/2000/svg" xmlns:xlink="http://www.w3.org/1999/xlink">
    <!-- Generator: sketchtool 56.2 (101010) - https://sketch.com -->
    <title>125A4915-033F-4620-8DE7-E533BD7B06B2</title>
    <desc>Created with sketchtool.</desc>
    <g id="v2" stroke="none" stroke-width="1" fill="none" fill-rule="evenodd">
        <g id="Animation-Format-300x250-White-Blue-Border" transform="translate(-223.000000, -211.000000)">
            <g id="Logos" transform="translate(224.000000, 211.000000)">
                <g id="CSlogo" transform="translate(0.000000, 0.828571)">
                    <ellipse id="Oval-Copy" stroke="#000000" stroke-width="1.23287671" fill="none" cx="13.9482602" cy="14.0857143" rx="13.9482602" ry="14.0857143"></ellipse>
                    <g id="logo-white-copy-2" transform="translate(4.000000, 8.000000)" fill="#000000">
                        <path d="M-8.36247738e-13,7.22741293 L-8.36247738e-13,1.83744789 C-8.36247738e-13,1.21882765 0.019427638,0.832976955 0.0582829139,0.667606213 C0.0971837945,0.502235471 0.174894346,0.342987975 0.36921633,0.214356703 C0.595963316,0.0551092069 0.893899369,1.50812522e-14 1.64532939,1.50812522e-14 C2.28014798,1.50812522e-14 2.6234608,0.0857254329 2.79835514,0.232726439 C2.97972537,0.385850692 3.08338504,0.679852704 3.08338504,1.10248599 L3.08338504,2.24171145 L2.61698492,2.41932867 L2.61698492,1.0902395 C2.61698492,0.783990994 2.57812964,0.630866742 2.45504233,0.526728452 C2.3384309,0.422590163 2.12468127,0.391973936 1.62590175,0.391973936 C0.984607285,0.391973936 0.822664697,0.440959897 0.686625626,0.532851698 C0.511731281,0.655359724 0.466400126,0.894209407 0.466400126,1.35358216 L0.466400126,7.63167648 C0.466400126,8.09104924 0.511731281,8.32989892 0.686625626,8.45240695 C0.822664697,8.54429875 1.11417048,8.59328471 1.62590175,8.59328471 C2.12468127,8.59328471 2.3384309,8.56266849 2.45504233,8.45853019 C2.57812964,8.3543919 2.61698492,8.20126766 2.61698492,7.89501915 L2.61698492,6.47403816 L3.08338504,6.29642094 L3.08338504,7.88277265 C3.08338504,8.31152919 2.97972537,8.59940795 2.79835514,8.75253221 C2.6234608,8.89953321 2.28014798,8.98525864 1.64532939,8.98525864 C1.02346256,8.98525864 0.595963316,8.93014944 0.36921633,8.77702518 C0.174894346,8.64227068 0.0971837945,8.48914642 0.0582829139,8.31765243 C0.019427638,8.16452818 -8.36247738e-13,7.79704723 -8.36247738e-13,7.22741293" id="Fill-1"></path>
                        <path d="M5.68935219,3.38268561 L4.38165243,3.38268561 L4.38165243,0.369981238 L5.861068,0.369981238 C6.1846916,0.369981238 6.40922873,0.412659821 6.50831521,0.522447685 C6.59414987,0.619998733 6.65362035,0.809046822 6.65362035,1.10178584 L6.65362035,2.72404429 C6.65362035,2.96796485 6.57434187,3.13262518 6.45549389,3.23021917 C6.32339408,3.33391008 6.05919446,3.38268561 5.68935219,3.38268561 M7.08637615,2.76527921 L7.08637615,1.02396485 C7.08637615,0.668311783 6.9751803,0.410820517 6.80514045,0.257534433 C6.62202414,0.0858160332 6.28194443,5.10702591e-14 5.82413064,5.10702591e-14 L3.89480216,5.10702591e-14 L3.89480216,8.35100509 L4.36569239,8.17320015 L4.36569239,3.81376293 L5.88297466,3.81376293 C6.31463555,3.81376293 6.53698119,4.04060561 6.53698119,4.50659358 L6.53698119,7.38220769 L7.00787142,7.20440275 L7.00787142,4.40234524 C7.00787142,3.91796811 6.78552578,3.66047685 6.33425022,3.6297851 L6.33425022,3.61752566 C6.62202414,3.57461765 6.83129334,3.48262873 6.93595096,3.33547236 C7.02094787,3.21900775 7.08637615,3.0289002 7.08637615,2.76527921 Z" id="Fill-3" fill-rule="nonzero"></path>
                        <path d="M10.2238557,4.84323083 C10.2238557,5.25324245 10.1849186,5.48575613 10.0291247,5.61426981 C9.8863098,5.73054819 9.64610657,5.76113642 9.25015512,5.76113642 C8.85415798,5.76113642 8.61400045,5.73054819 8.47118555,5.61426981 C8.31539164,5.48575613 8.27645458,5.25324245 8.27645458,4.84323083 L8.27645458,1.28788683 C8.27645458,0.877918298 8.31539164,0.645361533 8.47118555,0.516847857 C8.61400045,0.400569476 8.85415798,0.369981238 9.25015512,0.369981238 C9.64610657,0.369981238 9.8863098,0.400569476 10.0291247,0.516847857 C10.1849186,0.645361533 10.2238557,0.877918298 10.2238557,1.28788683 L10.2238557,4.84323083 Z M10.359573,0.251256094 C10.1206785,0.0490171601 9.72676393,3.82813356e-14 9.22310789,3.82813356e-14 C8.71945184,3.82813356e-14 8.32553726,0.0490171601 8.08664273,0.251256094 C7.88002511,0.416732158 7.78960431,0.692539983 7.78960431,1.14607816 L7.78960431,5.03789397 C7.78960431,5.49143214 7.88002511,5.76723997 8.08664273,5.93271603 C8.32553726,6.13495498 8.71945184,6.18397213 9.22310789,6.18397213 C9.72676393,6.18397213 10.1206785,6.13495498 10.359573,5.93271603 C10.5661907,5.76723997 10.6566115,5.49143214 10.6566115,5.03789397 L10.6566115,1.14607816 C10.6566115,0.692539983 10.5661907,0.416732158 10.359573,0.251256094 Z" id="Fill-5" fill-rule="nonzero"></path>
                        <polygon id="Fill-7" points="12.4655189 5.17973734 11.0893673 -1.40443213e-14 11.5827107 -1.40443213e-14 12.7706195 4.54147873 13.9390597 -1.40443213e-14 14.6725624 -1.40443213e-14 15.776107 3.52882865 16.775773 -1.40443213e-14 17.2561373 -1.40443213e-14 16.1525927 3.81728076 15.4450482 4.07505566 14.3155454 0.405025465 13.1341261 4.92809787"></polygon>
                        <path d="M18.712377,2.37845082 L18.1216489,2.37845082 L18.1216489,0.369981238 L18.712377,0.369981238 C19.2511434,0.369981238 19.4199163,0.582984508 19.4199163,1.37419461 C19.4199163,2.15932011 19.2511434,2.37845082 18.712377,2.37845082 M18.5945515,2.81441537e-14 L17.6347987,2.81441537e-14 L17.6347987,2.80128652 L18.5945515,2.80128652 C19.6386784,2.80128652 19.8526721,2.40982551 19.8526721,1.40062173 C19.8526721,0.385346447 19.6386784,2.81441537e-14 18.5945515,2.81441537e-14" id="Fill-9" fill-rule="nonzero"></path>
                        <polygon id="Fill-11" points="4.32755795 9.20959373 4.81440822 9.03811311 4.81440822 13.4250335 4.32755795 13.4250335"></polygon>
                        <path d="M14.9300749,9.83093005 L15.6366038,6.02540874 L16.3365313,9.83093005 L14.9300749,9.83093005 Z M15.9209898,4.96831949 L15.4021498,5.16369278 L13.794091,13.4771948 L14.3044178,13.477888 L14.880917,10.2481204 L16.4169134,10.2481204 L17.0151785,13.477888 L17.5266097,13.477888 L15.9209898,4.96831949 Z" id="Fill-13" fill-rule="nonzero"></path>
                        <polygon id="Fill-15" points="18.7661399 13.0841645 18.7661399 5.38225741 18.7661399 5.28462785 18.7661399 3.91123023 18.2839324 4.08964026 18.2839324 5.28462785 18.2839324 5.38225741 18.2839324 13.477888 19.9067666 13.477888 19.9067666 13.0841645"></polygon>
                        <polygon id="Fill-18" points="12.5686232 6.17127406 12.6033177 10.388214 12.6206189 12.8415291 11.6505107 10.7370486 10.1332722 7.09710054 9.41243855 7.3666193 9.41243855 10.7370486 9.41243855 10.7588292 9.41243855 13.4250335 9.88427455 13.4250335 9.88427455 10.7588292 9.88427455 10.7370486 9.88427455 7.68521988 11.1258487 10.7370486 12.3605485 13.4250335 13.0367683 13.4250335 13.0367683 10.388214 13.0367683 6.02540874"></polygon>
                        <path d="M2.57093316,11.6883191 L2.57093316,11.6881883 C2.44895122,11.6881447 2.32710758,11.6881447 2.20531003,11.6881447 L2.20531003,11.6881011 C1.62508903,11.6881011 1.60402109,11.6881011 1.58309147,11.6881011 C1.39218926,11.6881011 1.21889745,11.6880139 1.033389,11.6880139 C0.596217877,11.6870547 0.432146167,11.6601527 0.432146167,11.2174258 C0.432146167,10.8666975 0.559890676,10.8014265 1.033389,10.7967612 C1.23655394,10.796674 1.43981108,10.7965432 2.15870241,10.7964996 C2.29451452,10.7964124 2.43152522,10.7964124 2.57093316,10.7963688 C3.04267966,10.7975896 3.16595243,10.9157489 3.16595243,11.2545741 L3.16595243,11.3041487 L3.55882097,11.1555121 C3.52018873,10.6322101 3.32297076,10.4200902 2.57093316,10.4127651 L2.57093316,10.4125471 C2.43226284,10.4125035 2.29741884,10.4123727 2.15870241,10.4123291 C1.62504292,10.4123291 1.60429769,10.4123291 1.58309147,10.4123291 C1.39509359,10.4123291 1.21281218,10.4124599 1.02688883,10.4125471 L1.02688883,10.4125907 C0.361197485,10.4178229 -9.95300454e-13,10.5798014 -9.95300454e-13,11.3227228 C-9.95300454e-13,12.0651209 0.510009926,12.0721843 1.02688883,12.0720971 L2.13542166,12.0720971 L2.20531003,12.0720971 C2.32609336,12.0720971 2.43673458,12.0722279 2.55535119,12.0722715 C3.00045161,12.0743208 3.19213752,12.1527158 3.19213752,12.6108339 C3.19213752,12.9816624 3.09279091,13.0864361 2.55535119,13.0932379 C2.41377653,13.0933251 2.27496789,13.0934559 2.13542166,13.0935431 C1.43653795,13.0937175 1.23756815,13.0938483 1.02688883,13.0938919 L1.02688883,13.0939355 C0.549794665,13.0936739 0.392868534,12.9449501 0.392868534,12.5427288 L0.392868534,12.4931978 L-9.95300454e-13,12.6418344 C0.0387244272,13.2276169 0.268627663,13.4704758 1.02688883,13.4774956 L1.02688883,13.4776264 C1.21331928,13.4777135 1.39357227,13.477888 1.58309147,13.477888 C1.6042516,13.477888 1.62504292,13.477888 2.18202927,13.477888 L2.18202927,13.4778444 C2.3123093,13.4778008 2.44056092,13.4777135 2.57093316,13.47767 L2.57093316,13.4774083 C3.29558706,13.4695601 3.62432979,13.2474119 3.62432979,12.5055806 C3.62432979,11.763008 3.08919508,11.6914148 2.57093316,11.6883191" id="Fill-20"></path>
                        <path d="M8.54692696,9.38316525 L8.54692696,9.19189567 C8.54692696,8.61808688 8.21011453,8.45671402 7.4729654,8.45671402 C7.44648542,8.45671402 7.4205129,8.45697436 7.39477103,8.45732149 C7.28700583,8.45749505 7.18085524,8.4578422 7.07516598,8.45818933 L7.07516598,8.45823271 C6.65688379,8.45823271 6.64553523,8.4582761 6.63460186,8.4583195 C6.01103062,8.47368007 5.62582534,8.61808688 5.62582534,9.32935984 L5.62582534,9.79820465 L5.62582534,11.3310951 L5.62582534,12.2783742 L5.62582534,12.3258445 L5.62582534,12.6709802 C5.62582534,13.1777058 5.85657944,13.4565828 6.63460186,13.4764127 C6.64558136,13.4764127 6.65683765,13.4764561 7.07516598,13.4764994 C7.18062457,13.47689 7.28594478,13.4773239 7.39477103,13.4774974 C7.40810329,13.4776276 7.42120489,13.477888 7.43486007,13.477888 C8.15932278,13.477888 8.54692696,13.3344792 8.54692696,12.6411269 L8.54692696,11.9462993 L8.54692696,11.898829 L8.54692696,11.3310951 L8.54692696,11.3098332 L8.54692696,10.7201432 L7.40944112,10.7201432 L7.40944112,11.1026824 L8.08938611,11.1026824 L8.08938611,11.3098332 L8.08938611,11.3310951 L8.08938611,11.6288907 L8.08938611,11.898829 L8.08938611,11.9462993 L8.08938611,12.5992541 C8.08938611,13.0296107 7.95597131,13.0953922 7.44754647,13.0953922 C7.42923191,13.0953922 7.41220907,13.095045 7.39477103,13.0948281 C7.29208038,13.0946111 7.19506401,13.0941772 7.09777084,13.0936999 L7.09777084,13.0936131 C6.65692992,13.0935697 6.64581203,13.0935263 6.63460186,13.093483 C6.23643338,13.08129 6.08336618,12.984527 6.08336618,12.5155954 L6.08336618,12.3258445 L6.08336618,12.2783742 L6.08336618,11.6288907 L6.08336618,11.3310951 L6.08336618,9.79820465 L6.08336618,9.42499463 C6.08336618,8.95246154 6.17138673,8.85413647 6.63460186,8.84129259 C6.64585815,8.8412492 6.65692992,8.84120582 7.09777084,8.84116242 L7.09777084,8.84107563 C7.19492561,8.84064173 7.29078867,8.84020781 7.39477103,8.83999085 C7.42014384,8.83960033 7.44551664,8.8392532 7.4729654,8.8392532 C7.9050873,8.8392532 8.12753759,8.8631619 8.12753759,9.20387171 L8.12753759,9.53256209 L8.54692696,9.38316525 Z" id="Fill-23"></path>
                    </g>
                </g>
            </g>
        </g>
    </g>
</svg>
