<?xml version="1.0" encoding="UTF-8"?>
<svg width="28px" height="29px" viewBox="0 0 28 29" version="1.1" xmlns="http://www.w3.org/2000/svg" xmlns:xlink="http://www.w3.org/1999/xlink">
    <!-- Generator: sketchtool 56.2 (101010) - https://sketch.com -->
    <title>F7777B2B-2C6E-4546-A9FF-8BD686DBBB07</title>
    <desc>Created with sketchtool.</desc>
    <g id="v2" stroke="none" stroke-width="1" fill="none" fill-rule="evenodd">
        <g id="Animation-Format-300x250-White-Blue-Border" transform="translate(-256.000000, -211.000000)" fill="#000000">
            <g id="Logos" transform="translate(224.000000, 211.000000)">
                <path d="M52.2704751,25.7033435 L56.1052516,14.6766712 C56.8218429,12.8952537 57.0602825,11.4709886 57.0602825,10.2044165 C57.0602825,9.74471243 57.0298412,9.31794942 56.9757004,8.92036474 C57.9557378,10.6986694 58.5135529,12.7396474 58.5135529,14.9108504 C58.5135529,19.5170586 56.0033679,23.5391186 52.2704751,25.7033435 L52.2704751,25.7033435 Z M47.5829608,9.03200816 C48.3410699,8.99220228 49.0242099,8.91214093 49.0242099,8.91214093 C49.7027613,8.83176833 49.6228931,7.83191792 48.9441692,7.87189672 C48.9441692,7.87189672 46.9042369,8.03236526 45.5874648,8.03236526 C44.3499399,8.03236526 42.2706428,7.87189672 42.2706428,7.87189672 C41.5915738,7.83191792 41.5118437,8.87188546 42.1909126,8.91214093 C42.1909126,8.91214093 42.8332043,8.99220228 43.5116177,9.03200816 L45.4735104,14.4208114 L42.7169038,22.706383 L38.1315411,9.03200816 C38.8903057,8.99220228 39.5726177,8.91214093 39.5726177,8.91214093 C40.2510311,8.83176833 40.1707834,7.83191792 39.492094,7.87189672 C39.492094,7.87189672 37.4526447,8.03236526 36.1358726,8.03236526 C35.8997182,8.03236526 35.621025,8.02627852 35.3249781,8.01687175 C37.5771562,4.59007305 41.4475697,2.32705167 45.8473209,2.32705167 C49.1259167,2.32705167 52.1110876,3.5835134 54.351501,5.64155697 C54.2974736,5.63792568 54.2443432,5.63121644 54.1885907,5.63121644 C52.9513763,5.63121644 52.0736893,6.71140486 52.0736893,7.87189672 C52.0736893,8.91214093 52.6723726,9.79212411 53.3107657,10.8325758 C53.789526,11.6734102 54.3488445,12.7534257 54.3488445,14.3139477 C54.3488445,15.3950007 54.0291649,16.7544182 53.3905993,18.3953127 L52.1342373,22.6024589 L47.5829608,9.03200816 Z M46.0127672,27.8012158 C44.7782855,27.8012158 43.5865968,27.6163875 42.4599242,27.2794652 L46.2338638,16.1130699 L50.0993498,26.8984761 C50.1247085,26.9612083 50.1558901,27.0192741 50.1894491,27.0746384 C48.8822678,27.5429894 47.477476,27.8012158 46.0127672,27.8012158 L46.0127672,27.8012158 Z M33.2439522,14.9524024 C33.2439522,13.1236829 33.6376812,11.3877658 34.340241,9.81945289 L40.3788983,26.3027356 C36.1553895,24.2587324 33.2439522,19.9445934 33.2439522,14.9524024 L33.2439522,14.9524024 Z M46.027294,0.828571429 C38.3229867,0.828571429 32.0547945,7.1471112 32.0547945,14.9136959 C32.0547945,22.6809051 38.3229867,29 46.027294,29 C53.7317046,29 60,22.6809051 60,14.9136959 C60,7.1471112 53.7317046,0.828571429 46.027294,0.828571429 L46.027294,0.828571429 Z" id="WPlogo"></path>
            </g>
        </g>
    </g>
</svg>